<svg xmlns="http://www.w3.org/2000/svg" width="34.546" height="34.546"><path d="M29.33 19.339c-2.326-.545-5.3-1.969-6.377-3.737-.603-.984-.666-2.094-.179-3.042.027-.051.074-.128.109-.188-.028-.209.021-.486.172-.847l.02-.044H11.122l.014.032.001.002c.268.418.502.792.627 1.033.495.961.431 2.07-.17 3.055-1.08 1.77-4.053 3.193-6.381 3.738L4.57 30.124c-.07 1.183.705 2.149 1.723 2.149h21.958c1.018 0 1.792-.967 1.721-2.149l-.642-10.785zm-15.647 7.426h-2.062a.689.689 0 010-1.376h2.062a.69.69 0 010 1.376zm0-2.622h-2.062a.688.688 0 110-1.375h2.062a.687.687 0 110 1.375zm0-2.622h-2.062a.688.688 0 110-1.376h2.062a.69.69 0 010 1.376zm4.621 5.244h-2.061a.689.689 0 010-1.376h2.062a.69.69 0 01.688.688.691.691 0 01-.689.688zm0-2.622h-2.061a.688.688 0 110-1.375h2.062a.687.687 0 11-.001 1.375zm0-2.622h-2.061a.688.688 0 110-1.376h2.062a.69.69 0 01.688.688.691.691 0 01-.689.688zm4.62 5.244h-2.062a.688.688 0 010-1.376h2.062a.688.688 0 110 1.376zm0-2.622h-2.062a.688.688 0 010-1.375h2.062a.686.686 0 110 1.375zm0-2.622h-2.062a.688.688 0 010-1.376h2.062a.688.688 0 110 1.376zm11.448-8.407c-.043.216-.045.441-.13.646-.497 1.202-1.429 2.197-2.115 3.305-.885 1.414-8.406-1.634-7.437-3.521.365-.698 1.789-2.626 1.896-3.401.098-.692-.818-1.233-1.664-1.302-2.232-.181-5.083-.017-7.452-.002v.002l-.198-.001-.197.001v-.002c-2.369-.015-5.22-.178-7.452.002-.846.069-1.762.61-1.665 1.302.108.775 1.531 2.703 1.896 3.401.971 1.887-6.55 4.935-7.435 3.521C1.731 15.957.801 14.962.303 13.76c-.084-.205-.086-.43-.129-.646-1.104-4.93 3.148-9.96 9.551-10.476 2.445-.198 4.896-.31 7.35-.354v-.012c.066.001.131.005.197.006.065-.001.131-.005.198-.006v.012c2.452.044 4.903.156 7.35.354 6.402.515 10.654 5.547 9.552 10.476z"/></svg>