<svg xmlns="http://www.w3.org/2000/svg" width="121.7" height="122.881"><path d="M80.833 29.638c.309-.061.63-.002.896.161.455.188.776.635.778 1.158l.264 36.584c.021.449-.198.895-.611 1.141l-14.941 8.912a1.253 1.253 0 01-.963.238l-38.773-4.311a1.263 1.263 0 01-1.198-1.262V35.057h.002a1.258 1.258 0 01.752-1.191l19.45-8.55.001.002c.203-.09.433-.126.669-.096l33.674 4.416zM53.613 0c14.789 0 28.202 6.018 37.918 15.694 9.716 9.716 15.694 23.089 15.694 37.918a53.503 53.503 0 01-8.732 29.343l23.207 25.293-16.009 14.633-22.38-24.623c-8.497 5.664-18.724 8.967-29.697 8.967-14.79 0-28.203-6.018-37.918-15.693C5.979 81.814 0 68.441 0 53.612c0-14.79 6.019-28.202 15.695-37.918C25.41 5.979 38.784 0 53.613 0zm33.67 19.942c-8.614-8.614-20.532-13.964-33.67-13.964s-25.056 5.35-33.67 13.964S5.979 40.475 5.979 53.612c0 13.138 5.349 25.056 13.963 33.671 8.614 8.613 20.533 13.963 33.67 13.963s25.056-5.35 33.67-13.963c8.614-8.615 13.964-20.533 13.964-33.671.001-13.137-5.349-25.055-13.963-33.67zM68.174 40.325v33.136l11.626-6.57-.244-33.406-11.382 6.84zm-3.881 33.499V40.677l-15.63-1.657-.542 15.802-5.806-3.954-5.806 3.281 1.198-16.528-7.994-1.135V70.23l34.58 3.594zm-1.71-44.042L50.84 36.253l15.863 2.024 10.666-6.556-14.786-1.939zm-22.871 5.051l11.373-6.559-3.899-.511-14.592 6.161 7.118.909z"/></svg>